<?xml version="1.0" encoding="UTF-8"?><svg id="Layer_1" xmlns="http://www.w3.org/2000/svg" viewBox="0 0 217.4 35.1"><defs><style>.cls-1{fill:#391a4f;}</style></defs><path class="cls-1" d="M24.1.1H.9c-.4,0-.9.4-.9.9v7c0,.5.4.9.9.9h23.3c.4,0,.9-.4.9-.9V.9c0-.4-.4-.9-.9-.9"/><path class="cls-1" d="M37.1.1h-7c-.5,0-.9.4-.9.9v32.8c0,.4.4.9.9.9h7c.4,0,.9-.4.9-.9V.9c0-.4-.4-.9-.9-.9"/><path class="cls-1" d="M24.1,13H.9c-.4,0-.9.4-.9.9v7c0,.5.4.9.9.9h23.3c.4,0,.9-.4.9-.9v-7c0-.4-.4-.9-.9-.9"/><path class="cls-1" d="M24.1,26H.9c-.4,0-.9.4-.9.9v7c0,.5.4.9.9.9h23.3c.4,0,.9-.4.9-.9v-7c0-.4-.4-.9-.9-.9"/><rect class="cls-1" x="158" y=".1" width="2.5" height="2.5"/><rect class="cls-1" x="154.1" y=".1" width="2.5" height="2.5"/><rect class="cls-1" x="170.7" y=".1" width="2.3" height="13.2"/><path class="cls-1" d="M165,8.3c0,1.4-.7,2-1.2,2.3-.4.1-.9.2-2,.2h-7.4c-1.5,0-2.5-.2-3.2-.6s-1.3-1.2-1.3-2.9v-4h-2.3v4.1c0,3.8,2.3,5.7,6.9,5.7h9.1c2,0,3.7-1.7,3.7-3.7V3.3h-2.3v5h0Z"/><path class="cls-1" d="M177.8,12.4c0,1.9-.9,3-2.8,3.2h-.1v1.9h.1c1.7,0,3-.7,3.8-1.4.9-.8,1.4-2.1,1.4-4V3.3h-2.3v9.1h-.1Z"/><path class="cls-1" d="M126.2,16.1c0-.4.1-.7.5-.7s.4.1.5.4l.9-.4c-.3-.7-.8-1-1.4-1-.9,0-1.7.7-1.7,1.7s0,.4,0,.6h-.9v1.1h3.9v-1.2h-1.7c-.2,0-.3-.3-.3-.6"/><rect class="cls-1" x="58.2" y="15.3" width="2.5" height="2.5"/><rect class="cls-1" x="54.3" y="15.3" width="2.5" height="2.5"/><rect class="cls-1" x="138" y=".1" width="2.3" height="13.1"/><path class="cls-1" d="M132.3,8.4c0,2.1-.9,2.5-1.8,2.5h-.3l-2.7-9.5h-2.4l2.7,9.5h-3.3v2.3h6.3c2,0,3.8-1.7,3.8-3.7h0V.1h-2.3v8.3h0Z"/><path class="cls-1" d="M203.3,16.1c0-.4.1-.7.5-.7s.4.1.5.4l.9-.4c-.3-.7-.8-1-1.4-1-.9,0-1.7.7-1.7,1.7s0,.4.1.6h-.9v1.1h3.9v-1.2h-1.7c-.2,0-.3-.3-.3-.6"/><rect class="cls-1" x="215.1" y=".1" width="2.3" height="13.2"/><path class="cls-1" d="M209.4,8.4c0,2.1-.9,2.5-1.8,2.5h-.3l-2.7-9.5h-2.4l2.7,9.5h-3.3v2.3h6.3c2,0,3.8-1.7,3.8-3.7h0V.1h-2.3v8.3h0Z"/><path class="cls-1" d="M119.1,8.4c0,2.1-.9,2.5-1.8,2.5h-2.6c.4-.7.6-1.4.6-2.3V3.3h-2.3v5.1c0,2.1-.9,2.5-1.8,2.5h-2.6c.4-.7.6-1.4.6-2.3V3.3h-2.3v5.1c0,2.1-.9,2.5-1.8,2.5h-9.6c.2-.4.3-.9.3-1.4h0V.1h-2.3v8.3c0,2.1-.9,2.5-1.8,2.5h-.3l-2.7-9.5h-2.4l2.7,9.5h-4v2.3h32.3c2.5,0,4.1-2.3,4.1-4.6V3.4h-2.3v5.1h0v-.1Z"/><path class="cls-1" d="M79.4,9c0,1-.8,1.9-2.2,1.9s-2.4-1.1-2.4-2.8v-.8c0-1.7.9-3,2.4-3.2.8-.1,2.2,0,2.2,0v5h0v-.1ZM72.8,5.6c0,.5-.1,1-.1,1.6v.6c0,.6,0,1.1.1,1.6,0,.6.3,1,.5,1.4h-4.1v-4.8c0-2.2-1.5-4.3-4.4-4.3h-4.3v9.1h-4.9c-1.4,0-2.1-1-2.1-2V1.9h-2.3v7c0,2.2,1.5,4.3,4.4,4.3h7.2V4.2h2c1.4,0,2.1,1,2.1,2v7h10.3c1.2,0,4.8-.4,4.8-3.8h0V1.9h-2.3c-2.5,0-6.1.3-6.7,3.9"/><path class="cls-1" d="M196,9c0,1-.8,1.9-2.2,1.9s-2.4-1.1-2.4-2.8v-.8c0-1.7.9-3,2.4-3.2.8-.1,2.2,0,2.2,0v5h0v-.1ZM189.3,5.6c0,.5-.1,1-.1,1.6v.6c0,.6,0,1.1.1,1.6,0,.6.3,1,.5,1.4h-2.4c-.9,0-1.8-.4-1.8-2.5V.1h-2.3v9.4c0,2,1.6,3.7,3.6,3.7h6.6c1.1,0,4.8-.4,4.8-3.8h0V1.9h-2.3c-2.5,0-6.1.3-6.7,3.9"/><polygon class="cls-1" points="60.1 32.3 53.3 32.3 53.3 29.4 59.9 29.4 59.9 27.2 53.3 27.2 53.3 24.2 60.1 24.2 60.1 21.9 50.9 21.9 50.9 34.7 60.1 34.7 60.1 32.3"/><polygon class="cls-1" points="64.9 25.3 68.8 30.9 69.2 30.9 73.2 25.3 73.2 34.7 75.5 34.7 75.5 21.9 72.9 21.9 69 27.4 65.1 21.9 62.5 21.9 62.5 34.7 64.9 34.7 64.9 25.3"/><rect class="cls-1" x="77.9" y="21.9" width="2.3" height="12.8"/><path class="cls-1" d="M84.9,24.1h3.6c1.4,0,2.1,1,2.1,2s-.7,2-2.1,2h-3.6v-4.1h0v.1ZM90.7,34.7h2.8c0-.1-3.7-4.5-3.7-4.5,2.3-.5,3.1-2.2,3.1-4.1s-1.5-4.2-4.4-4.3h-5.9v12.8h2.3v-4.3h2.2l3.6,4.3v.1Z"/><path class="cls-1" d="M98.7,30l2.2-5.4,2.3,5.4h-4.6.1ZM102.3,21.9h-2.5l-5.5,12.8h2.5l1.1-2.4h6.4l1,2.4h2.5l-5.5-12.8h0Z"/><polygon class="cls-1" points="110.4 34.7 112.7 34.7 112.7 24 116.5 24 116.5 21.9 106.5 21.9 106.5 24 110.4 24 110.4 34.7"/><polygon class="cls-1" points="128.1 32.3 121.2 32.3 121.2 29.4 127.9 29.4 127.9 27.2 121.2 27.2 121.2 24.2 128.1 24.2 128.1 21.9 118.9 21.9 118.9 34.7 128.1 34.7 128.1 32.3"/><path class="cls-1" d="M135.5,26.9c-1.4-.2-2.8-.5-2.8-1.6s.8-1.7,2.5-1.7,2.5.7,2.9,1.4l1.8-1c-.9-2-2.9-2.5-4.9-2.5s-4.8,1.1-4.8,3.8,2.3,3.6,4.9,3.8c1.7.2,2.8.7,2.8,1.9s-1.4,2-2.8,2-2.9-.7-3.5-2l-2,1c.9,2.3,2.8,3.1,5.4,3.1s5.1-1.2,5.1-4.1-2.4-3.8-4.9-4.1"/><rect class="cls-1" x="145.6" y="21.9" width="2.3" height="12.8"/><path class="cls-1" d="M155.1,32.8c-1.5,0-2.9-.7-3.5-2l-2,1c.9,2.3,2.8,3.1,5.4,3.1s5.1-1.2,5.1-4.1-2.4-3.8-4.9-4.1c-1.4-.2-2.8-.5-2.8-1.6s.8-1.7,2.5-1.7,2.5.7,2.9,1.4l1.8-1c-.9-2-2.9-2.5-4.9-2.5s-4.8,1.1-4.8,3.8,2.3,3.6,4.9,3.9c1.7.2,2.8.7,2.8,1.9s-1.4,2-2.8,2"/><polygon class="cls-1" points="170.6 32.4 164.2 32.4 164.2 21.9 161.9 21.9 161.9 34.7 170.6 34.7 170.6 32.4"/><path class="cls-1" d="M176.5,30l2.2-5.4,2.3,5.4h-4.6.1ZM180.1,21.9h-2.5l-5.5,12.8h2.5l1.1-2.4h6.4l1,2.4h2.5l-5.5-12.8h0Z"/><polygon class="cls-1" points="189.6 25.3 193.5 30.9 193.9 30.9 198 25.3 198 34.7 200.3 34.7 200.3 21.9 197.6 21.9 193.8 27.4 189.9 21.9 187.3 21.9 187.3 34.7 189.6 34.7 189.6 25.3"/><rect class="cls-1" x="202.1" y="21.9" width="2.3" height="12.8"/><path class="cls-1" d="M215.7,31.4c-.8.9-2,1.3-3.1,1.3-3,0-4.2-2.2-4.2-4.3s1.2-4.4,4.2-4.4,2.2.4,3,1.2l1.5-1.5c-1.2-1.3-2.8-2-4.5-2-4.4,0-6.5,3.4-6.5,6.7s2,6.6,6.5,6.6,3.4-.6,4.7-1.9l-1.6-1.7h0Z"/></svg>